<?xml version="1.0" encoding="UTF-8" standalone="no"?>
<!-- Created with Inkscape (http://www.inkscape.org/) -->

<svg
   version="1.1"
   id="svg1"
   width="1365.3333"
   height="341.33334"
   viewBox="0 0 1365.3333 341.33334"
   sodipodi:docname="pcf_rebirth_logo.svg"
   inkscape:version="1.4.2 (f4327f4, 2025-05-13)"
   xmlns:inkscape="http://www.inkscape.org/namespaces/inkscape"
   xmlns:sodipodi="http://sodipodi.sourceforge.net/DTD/sodipodi-0.dtd"
   xmlns="http://www.w3.org/2000/svg"
   xmlns:svg="http://www.w3.org/2000/svg">
  <defs
     id="defs1" />
  <sodipodi:namedview
     id="namedview1"
     pagecolor="#ffffff"
     bordercolor="#000000"
     borderopacity="0.25"
     inkscape:showpageshadow="2"
     inkscape:pageopacity="0.0"
     inkscape:pagecheckerboard="true"
     inkscape:deskcolor="#d1d1d1"
     inkscape:zoom="1.2496939"
     inkscape:cx="662.16215"
     inkscape:cy="170.04164"
     inkscape:window-width="2560"
     inkscape:window-height="1351"
     inkscape:window-x="-9"
     inkscape:window-y="-9"
     inkscape:window-maximized="1"
     inkscape:current-layer="g1" />
  <g
     inkscape:groupmode="layer"
     inkscape:label="Image"
     id="g1">
    <path
       style="fill-opacity:1;fill:#8c8c8c"
       d="M 74.540644,302.41256 C 53.277359,299.7572 35.637662,286.42492 25.481795,265.33334 l -4.81513,-10 -0.39507,-80.66667 C 20.00817,120.87983 20.348522,92.108834 21.292996,88.324582 24.058265,77.244901 29.741101,67.464499 38.610418,58.520571 47.786779,49.267014 55.853797,44.392039 67.908664,40.815366 74.522379,38.85308 127.79509,38.666668 681.96183,38.666668 c 663.17107,0 613.05747,-0.595729 628.98857,7.47715 8.8619,4.490674 21.3891,16.44577 26.2985,25.097502 8.1317,14.330414 8.0844,13.747983 8.0844,99.52691 0,74.04254 -0.1419,78.74335 -2.6189,86.758 -6.5738,21.27103 -24.7509,38.30351 -46.7145,43.77293 -6.7323,1.67651 -1208.180451,2.77167 -1221.459256,1.1134 z M 1300.9631,283.50112 c 10.0084,-4.62299 20.4684,-15.1347 25.0403,-25.16425 l 3.1925,-7.00353 0.2307,-78.66667 C 1329.5535,129.4 1329.1985,92.200003 1328.6378,90.000003 1324.0705,72.078522 1307.57,57.816748 1287.9461,54.829307 1277.0402,53.169033 87.786874,53.073813 77.596139,54.732398 61.741454,57.312814 46.710446,68.26815 39.817596,82.267253 l -3.150932,6.399416 -0.363452,80.202821 c -0.354021,78.12168 -0.292351,80.39285 2.376662,87.52643 3.772043,10.08169 8.930478,16.76453 17.435417,22.58789 14.108861,9.66038 -43.368566,8.8749 629.217999,8.59882 l 607.33331,-0.24929 z m -196.9847,-39.39386 c -10.8879,-2.13529 -18.5675,-8.94022 -20.5455,-18.20548 -0.8073,-3.78173 3.5532,-28.81706 9.1696,-52.645 1.1136,-4.72456 2.0336,-9.04011 2.0444,-9.59011 0.011,-0.55 -3.7922,-1 -8.4512,-1 l -8.471,0 2.6591,-13.33333 2.659,-13.33334 8.3887,0 c 9.5735,0 8.5833,1.34688 12.0073,-16.33333 L 1105.6982,108 h 16.4842 c 13.5696,0 16.4842,0.3445 16.4842,1.94837 0,1.0716 -1.2,7.09484 -2.6667,13.38497 -1.4666,6.29013 -2.6666,11.71336 -2.6666,12.05163 0,0.33827 6.9114,0.61503 15.3587,0.61503 h 15.3587 l -0.9167,3.65255 c -0.5042,2.00889 -1.8656,8.06886 -3.0254,13.46659 l -2.1087,9.81404 -15.2745,0.20008 -15.2744,0.20008 -4.3398,20.66667 c -5.5497,26.42899 -5.6473,30.27541 -0.8145,32.11283 1.9966,0.75909 7.8466,1.24341 13,1.07627 5.1534,-0.16714 9.3667,0.24693 9.3627,0.92017 -0,0.67323 -1.1532,6.69896 -2.5539,13.39051 l -2.5468,12.16645 -7.975,0.83355 c -9.6886,1.01266 -21.2806,0.84783 -27.6053,-0.39253 z M 65.7442,241.00001 c 0.795244,-3.40839 16.406439,-78.43247 22.403545,-107.66667 2.181323,-10.63334 4.645291,-22.52523 5.475484,-26.42642 l 1.509442,-7.093093 44.766989,0.486853 c 38.61152,0.41991 45.592,0.80651 50.767,2.81161 9.15403,3.54682 15.60732,8.33318 19.64135,14.56786 3.34872,5.17553 3.6421,6.66711 3.47223,17.65319 -0.47524,30.73471 -12.92115,52.45695 -34.77747,60.6982 -11.0526,4.16754 -20.66624,5.24474 -47.07759,5.27499 l -23.40814,0.0268 -2.3415,12.33333 c -1.28782,6.78334 -3.25225,16.38334 -4.36539,21.33334 l -2.023899,9 H 82.415246 c -17.332882,0 -17.369468,-0.007 -16.671046,-3 z M 166.38644,168.1269 c 7.56776,-3.88535 10.17752,-9.48612 10.23328,-21.96149 0.0446,-9.98462 -0.13794,-10.64035 -3.71083,-13.32835 -3.48731,-2.62362 -5.40065,-2.82745 -26.58504,-2.83207 L 123.49658,130 l -4.25827,20.33334 -4.25826,20.33333 h 23.22976 c 20.22264,0 23.87013,-0.32877 28.17663,-2.53977 z m 80.63981,74.4677 c -20.89476,-4.12396 -32.31983,-17.14666 -32.34657,-36.86976 -0.0213,-15.73768 10.32562,-62.57261 16.52597,-74.80393 7.12991,-14.06503 21.74249,-25.10325 38.18195,-28.84233 12.73756,-2.897099 86.61238,-3.089306 86.61238,-0.22535 0,1.01928 -1.2,7.68532 -2.66667,14.81344 -1.46666,7.12812 -2.66666,13.19416 -2.66666,13.48011 0,0.28594 -16.22391,0.51989 -36.05312,0.51989 -33.15247,0 -36.46444,0.20984 -41.16561,2.6082 -5.3019,2.70483 -11.39375,8.98576 -12.65839,13.05127 -2.2054,7.08984 -10.12288,47.81667 -10.12288,52.0712 0,2.75512 0.97842,6.4062 2.17426,8.1135 4.34374,6.20156 8.52707,6.8225 45.96415,6.8225 h 34.89072 l -0.79288,5.66667 c -0.43608,3.11666 -1.78273,10.01666 -2.99256,15.33333 l -2.1997,9.66667 -37.52199,-0.14609 c -20.6371,-0.0803 -40.06018,-0.64704 -43.1624,-1.25932 z m 98.76045,-0.51959 c 0.84134,-2.1925 6.38874,-28.48953 16.89193,-80.07501 3.73281,-18.33333 8.00991,-35.88173 9.50468,-38.99643 4.63751,-9.66334 17.19641,-18.48948 30.76145,-21.61852 6.62034,-1.527104 85.05469,-1.882176 85.05625,-0.38505 5.7e-4,0.55 -1.28357,7.45 -2.85364,15.33334 l -2.85469,14.33333 -36.81302,0.0424 c -26.83462,0.0309 -37.38645,0.48267 -38.92856,1.66666 -3.15823,2.42481 -4.74766,6.08593 -6.49366,14.9576 -0.86594,4.4 -1.87356,9.05 -2.23914,10.33333 -0.62111,2.18035 1.6578,2.33333 34.75849,2.33333 19.898,0 35.42318,0.52187 35.42318,1.19072 0,1.04872 -2.98885,16.88274 -4.74595,25.14262 l -0.63819,3 h -35.28252 -35.28253 l -0.91916,3.66225 c -0.50555,2.01424 -3.07658,14.16424 -5.71342,27 l -4.79424,23.33775 -17.80325,0.37313 c -15.39382,0.32264 -17.69914,0.10184 -17.03401,-1.63146 z m 166.21327,0.69833 c 0,-0.67466 1.46128,-8.02466 3.24728,-16.33333 1.78601,-8.30867 8.1176,-39.10667 14.07021,-68.44001 5.95261,-29.33333 11.14721,-54.43201 11.54356,-55.77483 0.68364,-2.316128 2.99089,-2.415694 44.92979,-1.93889 47.4032,0.53893 50.64687,0.96839 61.70663,8.1699 5.38882,3.50891 10.63608,12.79457 11.79753,20.87716 1.2093,8.41558 -3.50763,31.58001 -8.17786,40.16075 -4.6622,8.566 -14.6821,17.63106 -22.82128,20.64651 -3.46273,1.2829 -6.50977,2.48999 -6.7712,2.68242 -0.26143,0.19243 4.38857,11.117 10.33333,24.27683 5.94477,13.15982 10.80867,24.59592 10.80867,25.41355 0,1.02209 -5.8022,1.48661 -18.56892,1.48661 h -18.56893 l -3.55492,-7.66667 c -3.79548,-8.18547 -14.3477,-32.78711 -15.72718,-36.66667 -0.72159,-2.02932 -2.72872,-2.33333 -15.40521,-2.33333 h -14.57553 l -1.43243,6.33333 c -1.88593,8.33838 -8.16688,38.86139 -8.16688,39.68789 0,0.355 -7.8,0.64545 -17.33333,0.64545 -9.6618,0 -17.33333,-0.54291 -17.33333,-1.22667 z m 101.07752,-77.47253 c 5.688,-3.46789 9.52201,-11.90249 9.55986,-21.03114 0.0243,-5.85715 -0.54428,-7.59522 -3.32871,-10.17574 -2.89362,-2.68172 -5.29636,-3.2442 -17.37494,-4.06748 -7.70933,-0.52547 -18.20218,-0.53509 -23.31746,-0.0214 -8.03421,0.80685 -9.38889,1.32393 -9.94968,3.79781 -0.35704,1.57509 -1.88999,8.8638 -3.40656,16.19713 -1.51657,7.33334 -3.06092,14.38334 -3.4319,15.66667 -0.62448,2.16028 1.08739,2.33297 23.08201,2.32835 21.47096,-0.005 24.18088,-0.26371 28.16738,-2.69421 z m 71.90176,77.24846 c -13.17626,-3.10429 -22.47894,-11.47136 -24.8031,-22.30853 -1.53488,-7.15691 -0.1016,-18.37211 5.39828,-42.24073 3.58334,-15.55116 7.37942,-22.87962 15.7496,-30.40513 11.00875,-9.89782 18.26522,-12.03602 42.90898,-12.64362 24.8388,-0.6124 33.5109,0.81945 41.39816,6.83526 12.94466,9.87322 14.66528,23.03907 6.78012,51.88015 l -2.09607,7.66667 h -39.15763 -39.15763 v 5.96576 c 0,9.65718 1.55408,10.03424 41.35697,10.03424 31.24321,0 33.44759,0.1565 32.86611,2.33333 -0.3428,1.28334 -1.69637,7.28334 -3.00794,13.33334 l -2.38467,11 -35.41524,-0.13394 c -19.47838,-0.0737 -37.67455,-0.66622 -40.43594,-1.3168 z m 59.54472,-65.99165 c 1.71172,-4.46067 0.78514,-10.83287 -1.93289,-13.29264 -3.60448,-3.26201 -24.64341,-4.36733 -32.54238,-1.70967 -5.83163,1.96208 -11.38207,8.77706 -11.38207,13.97521 v 3.13615 h 22.52401 c 19.30897,0 22.63953,-0.30104 23.33333,-2.10905 z m 35.47598,67.07307 c 0,-0.20313 6.02989,-28.85313 13.39976,-63.66667 7.36986,-34.81354 14.11986,-66.89735 14.99999,-71.29735 l 1.60025,-8 h 44.66667 c 39.69196,0 45.55765,0.27478 52.66666,2.46722 15.58905,4.80771 22.39069,16.78777 19.63585,34.58558 -2.00728,12.96816 -7.37051,22.94071 -15.25046,28.3572 l -6.28128,4.3176 4.63439,3.1362 c 5.1287,3.47071 9.92817,11.99208 9.92817,17.62729 0,6.21398 -4.17821,22.53609 -7.41389,28.96227 -3.64599,7.24108 -10.88721,13.94508 -18.88279,17.48191 -12.45922,5.51131 -21.50474,6.35063 -68.70332,6.37492 -24.75,0.0127 -45,-0.14305 -45,-0.34617 z m 95.41888,-30.91383 c 3.35784,-1.403 5.39422,-3.55308 7.26122,-7.66667 3.29461,-7.25905 3.32587,-11.92336 0.10658,-15.90247 -2.49983,-3.08986 -3.03808,-3.15567 -29.28296,-3.58052 l -26.73631,-0.43281 -0.70819,3.09947 c -0.3895,1.70471 -1.84701,8.34948 -3.23891,14.76615 l -2.53073,11.66666 h 25.23137 c 19.12295,0 26.36112,-0.47204 29.89793,-1.94981 z m 7.82704,-56.68362 c 7.90668,-3.00612 11.76238,-18.22714 5.95118,-23.49325 -2.49509,-2.26105 -5.41849,-2.58578 -26.62027,-2.95697 l -23.81737,-0.41698 -0.71711,3.08365 c -1.54712,6.65273 -4.70902,22.65857 -4.70902,23.83748 0,1.67215 45.50198,1.62298 49.91259,-0.0539 z m 42.08741,86.90004 c 0,-0.5867 2.42175,-12.7367 5.38166,-27 2.95992,-14.2633 7.24797,-34.93327 9.529,-45.93327 2.28103,-11.00001 4.82512,-23.25641 5.65353,-27.23647 l 1.50619,-7.23646 15.9601,0.34287 c 8.77806,0.18857 16.17361,0.55637 16.43455,0.81732 0.44935,0.44934 -5.62654,30.96534 -16.65434,83.64607 l -4.95421,23.66667 h -16.42824 c -9.03553,0 -16.42824,-0.48003 -16.42824,-1.06673 z m 52,-0.0764 c 0,-2.88596 22.04147,-105.35158 22.82552,-106.11063 0.2793,-0.27036 7.4078,-0.67799 15.8411,-0.90584 16.9955,-0.45918 15.9537,-1.11883 14.0721,8.91085 l -0.887,4.72832 6.7635,-4.65247 c 3.7199,-2.55885 9.952,-5.84544 13.8491,-7.30352 8.1885,-3.06371 25.4521,-5.14942 26.6451,-3.21914 0.4355,0.70468 -0.3857,6.32447 -1.8249,12.48841 -1.4392,6.16395 -2.9284,12.55717 -3.3094,14.20717 -0.6265,2.71377 -1.4853,3.00151 -9.0005,3.01583 -17.2592,0.0329 -32.3069,7.08674 -37.8497,17.74274 -1.5425,2.96541 -13.7316,57.13725 -13.7798,61.24144 -0.01,0.55 -7.5118,1 -16.67846,1 -9.16667,0 -16.66666,-0.51442 -16.66666,-1.14316 z m 177.85542,-1.14957 c 1.4134,-4.61163 30.1446,-142.507901 30.1446,-144.679866 0,-3.504778 1.8657,-3.922095 18.6848,-4.179285 15.3175,-0.234228 15.8585,-0.147182 15.2549,2.454517 -1.6603,7.156034 -9.9397,46.807454 -9.9397,47.602604 0,0.49887 2.5536,-0.52024 5.6748,-2.26469 12.5848,-7.03381 32.4935,-9.29127 46.1566,-5.23375 12.0055,3.56523 20.1686,14.5382 20.1686,27.11088 0,2.31457 -3.6,21.38053 -8,42.36879 -4.4,20.98827 -8,38.37493 -8,38.63701 0,0.26208 -7.5,0.47652 -16.6667,0.47652 -9.1667,0 -16.6667,-0.38406 -16.6667,-0.85345 0,-0.4694 3,-15.20297 6.6667,-32.74127 6.9382,-33.18645 7.5689,-38.22805 5.3107,-42.44765 -3.1499,-5.88557 -20.6875,-6.20868 -32.5092,-0.59893 -8.4882,4.02793 -7.6942,1.52663 -20.7306,65.30796 l -2.1802,10.66667 -17.0481,0.37394 c -15.8245,0.34709 -16.9959,0.20355 -16.3205,-2 z M 950.302,123.04021 c -0.31442,-0.57211 0.61489,-6.59021 2.06514,-13.37354 l 2.63681,-12.333334 h 16.498 c 19.09196,0 17.87265,-1.389829 14.03701,16.000004 l -2.20569,10 -16.22979,0.37354 c -8.92639,0.20545 -16.48705,-0.0945 -16.80148,-0.66667 z"
       id="path1" />
  </g>
</svg>
